<?xml version="1.0" encoding="UTF-8"?>
<svg id="Layer_1" data-name="Layer 1" xmlns="http://www.w3.org/2000/svg" viewBox="0 0 1920 1080">
  <defs>
    <style>
      .cls-1 {
        fill: #1f2f41;
      }
    </style>
  </defs>
  <polygon class="cls-1" points="310.8 254.94 753.82 254.94 618.2 390.56 464.21 390.56 372.72 482.04 581.69 482.04 304.19 772.85 310.8 254.94"/>
  <g>
    <path class="cls-1" d="M639.5,654.28c0,8.12,.47,20.18,1.42,36.2,.95,16.02,1.42,28.03,1.42,36.04,0,4.22-1.85,6.48-5.53,6.8-13.07,.95-28.04,1.42-44.9,1.42-2,0-3.35-3.03-4.03-9.09-.69-6.06-1.5-9.14-2.45-9.25-.85,.42-1.95,1.32-3.32,2.69-11.8,11.91-24.45,17.86-37.94,17.86-20.55,0-37.57-8.11-51.06-24.34-12.75-15.18-19.13-33.3-19.13-54.38,0-24.34,6.58-43.95,19.76-58.81,13.7-15.39,32.46-23.08,56.28-23.08,16.54,0,29.61,5.8,39.2,17.39,.42,.53,.79,.79,1.11,.79,.95,0,2.03-2.55,3.24-7.67,1.21-5.11,2.66-7.67,4.35-7.67,3.9,0,11.33,1.11,22.29,3.32,10.43,2.11,17.92,3.9,22.45,5.38,1.58,.63,2.37,1.48,2.37,2.53,0,.42-.16,1.53-.47,3.32-3.37,19.08-5.06,39.26-5.06,60.54Zm-50.9,.95c0-8.96-2.82-16.36-8.46-22.21-5.64-5.85-12.99-8.77-22.05-8.77s-16.39,2.9-21.97,8.69c-5.59,5.8-8.38,13.23-8.38,22.29,0,8.54,2.95,15.86,8.85,21.97,5.9,6.11,13.07,9.17,21.5,9.17,8.96,0,16.28-2.92,21.97-8.77,5.69-5.85,8.54-13.3,8.54-22.37Z"/>
    <path class="cls-1" d="M775.76,634.83c0,4.11-2.27,6.17-6.8,6.17-2,0-4.93-.13-8.77-.39-3.85-.26-6.72-.4-8.62-.4-8.75,0-14.7,1.37-17.86,4.11-3.16,2.74-4.74,8.27-4.74,16.6,0,4.53,.08,11.41,.24,20.63,.16,9.22,.24,16.1,.24,20.63,0,3.06,.21,7.61,.63,13.67,.42,6.06,.63,10.57,.63,13.52,0,2.53-1.74,3.95-5.22,4.27-5.06,.42-12.8,.63-23.24,.63s-18.02-.32-24.03-.95c-3.48-.42-5.22-2.16-5.22-5.22,0-8.43,.05-21.05,.16-37.86,.1-16.81,.16-29.43,.16-37.86,0-24.76-2.27-45.16-6.8-61.18-.21-.95-.32-1.74-.32-2.37,0-1.58,.79-2.63,2.37-3.16,5.79-.63,14.28-1.79,25.45-3.48,16.65-3.26,25.24-4.9,25.77-4.9,1.9,0,3.11,3.32,3.64,9.96,.53,6.64,1.47,9.96,2.85,9.96-1.48,0,2.84-2.77,12.96-8.3s19.86-8.3,29.25-8.3c5.9,0,8.85,1.26,8.85,3.79,0,3.06-.32,7.38-.95,12.96-.63,6.01-1,10.33-1.11,12.96,0,3.06,.05,7.11,.16,12.17,.21,6.22,.32,10.33,.32,12.33Z"/>
    <path class="cls-1" d="M1046.87,727.47c0,3.69-1.58,5.75-4.74,6.17-3.16,.42-10.96,.63-23.4,.63s-20.87-.32-24.03-.95c-3.16-.63-4.74-3.21-4.74-7.75,0-4.85,.16-12.09,.47-21.74,.32-9.64,.47-16.89,.47-21.74,0-18.44-.21-31.56-.63-39.36-.63-12.54-6.59-18.81-17.86-18.81-4.96,0-9.88,2.08-14.78,6.24-4.9,4.16-7.62,8.77-8.14,13.83-.42,4.43-.63,17.39-.63,38.89,0,4.96,.16,12.46,.47,22.53,.32,10.07,.47,17.63,.47,22.68,0,3.48-1.53,5.22-4.58,5.22h-47.9c-2.95,0-4.43-2.16-4.43-6.48,0-4.95,.16-12.38,.47-22.29,.32-9.91,.47-17.39,.47-22.45,0-3.9-.11-9.8-.32-17.71-.21-7.9-.32-13.86-.32-17.86,0-15.07-5.75-22.61-17.23-22.61-4.64,0-9.64,1.79-15.02,5.37-5.9,3.9-8.85,8.01-8.85,12.33,0,9.59,.05,23.92,.16,43,.1,19.08,.16,33.36,.16,42.84,0,2.63-.32,4.27-.95,4.9s-2.27,1.05-4.9,1.26c-4.74,.42-12.23,.63-22.45,.63-6.64,0-14.18-.32-22.61-.95-2.53-.21-4.03-.58-4.51-1.11-.47-.53-.71-2.11-.71-4.74,0-8.43,.05-21.05,.16-37.86,.1-16.81,.16-29.43,.16-37.86,0-17.28-1.26-36.73-3.79-58.33-.21-1.27-.32-2.21-.32-2.85,0-1.79,.74-3,2.21-3.64,2.32-.95,6.69-1.74,13.12-2.37,7.9-.74,12.59-1.21,14.07-1.42,1.05-.21,5.22-1.32,12.49-3.32,5.16-1.47,9.33-2.21,12.49-2.21,2,0,3.05,3.66,3.16,10.99,.1,7.33,.53,10.99,1.26,10.99,1.05-.42,2.27-1.16,3.64-2.21,9.49-7.38,16.97-12.43,22.45-15.18,8.11-3.9,16.91-5.85,26.4-5.85s18.34,2.16,25.92,6.48c8.54,4.85,14.07,11.65,16.6,20.39,5.58-7.59,13.28-13.96,23.08-19.13,9.8-5.16,19.34-7.75,28.61-7.75,13.91,0,25.24,3.22,33.99,9.64,9.91,7.27,14.86,17.65,14.86,31.14,0,5.59-.16,13.99-.47,25.21s-.47,19.63-.47,25.21c0,6.64,.16,16.63,.47,29.96,.32,13.33,.47,23.32,.47,29.96Z"/>
    <path class="cls-1" d="M1135.4,660.76c0,7.69,.16,19.16,.47,34.38,.32,15.23,.47,26.64,.47,34.22,0,2.21-1.32,3.53-3.95,3.95-3.58,.63-11.65,.95-24.19,.95s-20.76-.32-24.34-.95c-2.32-.42-3.74-1.11-4.27-2.05-.21-.42-.32-2-.32-4.74,0-7.27,.16-18.2,.47-32.8,.32-14.59,.47-25.58,.47-32.96,0-29.93-1.16-53.75-3.48-71.45-.21-1.68-.32-2.79-.32-3.32,0-2.11,1.42-3.16,4.27-3.16s7.46,.32,13.52,.95c6.06,.63,10.62,.95,13.67,.95s7.64-.26,13.75-.79c6.11-.53,10.7-.79,13.75-.79,2.53,0,3.79,1.05,3.79,3.16,0,.42-.11,1.42-.32,3-2.32,20.55-3.48,44.37-3.48,71.45Zm4.11-117.45c0,18.34-10.33,27.51-30.98,27.51-8.85,0-16.18-2.32-21.97-6.96-6.32-5.06-9.49-11.91-9.49-20.55s3.27-14.96,9.8-20.23c6.01-4.85,13.22-7.27,21.66-7.27s15.33,2.48,21.34,7.43c6.43,5.27,9.64,11.96,9.64,20.08Z"/>
    <path class="cls-1" d="M1323.04,728.73c0,2.84-1.48,4.48-4.43,4.9-2.95,.42-10.65,.63-23.08,.63-13.28,0-21.5-.32-24.66-.95-3.16-.63-4.74-2.79-4.74-6.48,0-4.95,.16-12.43,.47-22.45,.32-10.01,.47-17.55,.47-22.61,0-3.9-.11-9.72-.32-17.47-.21-7.75-.32-13.57-.32-17.47,0-14.44-6.27-21.66-18.81-21.66-4.11,0-8.91,1.79-14.39,5.38-5.9,4.01-8.85,7.96-8.85,11.86v85.36c0,3.48-1.63,5.43-4.9,5.85-3.69,.42-11.22,.63-22.61,.63-12.33,0-20.34-.32-24.03-.95-3.27-.53-4.9-2.26-4.9-5.22,0-8.22,.05-20.6,.16-37.15,.1-16.54,.16-28.98,.16-37.31,0-26.24-2.06-46.84-6.17-61.81-.21-.95-.32-1.74-.32-2.37,0-1.68,.79-2.84,2.37-3.48,6.64-.74,15.49-1.9,26.56-3.48,16.76-3.27,26.19-4.9,28.3-4.9,1.16,0,2.06,3.56,2.69,10.67,.63,7.11,1.53,10.67,2.69,10.67-1.16,0,4.51-3.66,16.99-10.99,12.49-7.32,23.42-10.99,32.8-10.99,13.38,0,24.55,3.16,33.51,9.49,10.01,7.27,15.02,17.39,15.02,30.35v50.43c0,6.85,.05,17.1,.16,30.75,.1,13.65,.16,23.9,.16,30.75Z"/>
    <path class="cls-1" d="M1506.89,692.22c0,30.04-6.32,51.59-18.97,64.66-13.07,13.38-34.78,20.08-65.13,20.08-8.85,0-20.92-1.42-36.2-4.27-19.5-3.58-29.25-7.8-29.25-12.65,0-2,2.26-12.33,6.8-30.98,.74-2.95,1.9-4.43,3.48-4.43,.53,.11,1.11,.32,1.74,.63,16.23,8.01,31.25,12.01,45.05,12.01,7.59,0,15.12-1.9,22.61-5.69,9.06-4.53,13.59-10.22,13.59-17.07v-10.59c-10.75,10.12-24.56,15.18-41.42,15.18-19.81,0-36.1-7.11-48.85-21.34-12.33-13.7-18.5-30.56-18.5-50.59s5.9-36.83,17.71-50.11c12.33-13.8,28.46-20.71,48.37-20.71,15.91,0,28.08,5.69,36.52,17.07,1.68,2.32,2.85,3.48,3.48,3.48,.95,0,1.42-1.9,1.42-5.69,0-8.43,.95-12.65,2.85-12.65,1.68,0,10.8,.87,27.35,2.61,16.54,1.74,25.13,2.71,25.77,2.92,1.79,.63,2.69,2,2.69,4.11,0,7.27-.24,18.13-.71,32.56-.47,14.44-.71,25.29-.71,32.56,0,4.32,.05,10.8,.16,19.44,.1,8.64,.16,15.12,.16,19.44Zm-54.7-43.79c0-7.69-2.56-14.36-7.67-20-5.11-5.64-11.51-8.46-19.21-8.46s-14.1,2.87-19.21,8.62c-5.11,5.75-7.67,12.46-7.67,20.16s2.61,14.33,7.82,19.92c5.22,5.59,11.57,8.38,19.05,8.38s14.09-2.84,19.21-8.54c5.11-5.69,7.67-12.38,7.67-20.08Z"/>
    <path class="cls-1" d="M1686.31,655.54c0,24.03-7.35,43.53-22.05,58.49-14.7,14.97-34.01,22.45-57.94,22.45s-42.26-7.38-57.22-22.13c-14.97-14.75-22.45-33.72-22.45-56.91,0-24.45,7.17-44.29,21.5-59.52,14.33-15.23,33.72-22.84,58.17-22.84s43.1,7.46,57.86,22.37c14.75,14.91,22.13,34.28,22.13,58.09Zm-51.85,0c0-8.32-2.58-15.67-7.75-22.05-5.16-6.38-11.86-9.56-20.08-9.56s-15.18,3.27-20.55,9.8c-5.06,6.11-7.59,13.38-7.59,21.81s2.53,15.86,7.59,21.97c5.38,6.54,12.22,9.8,20.55,9.8s15.02-3.26,20.39-9.8c4.95-6.11,7.43-13.44,7.43-21.97Z"/>
  </g>
  <path class="cls-1" d="M654.37,387.08c16.63-10.87,33.83-20.97,51.6-29.91,8.76-4.75,18.08-8.71,27.11-12.82,1.84-.79,7.06-3.18,8.6-3.83,25.23-10.23,50.79-18.87,77.52-25.17,4.03-1.07,10.83-2.32,15.02-3.16,4.59-.83,10.65-2.19,15.15-2.84,9.13-1.24,21.76-3.19,30.8-3.69,4.82-.32,10.87-.93,15.58-1.13,9.51-.2,22.11-.59,31.44,.01,3.08,.2,8.95,.28,11.85,.53,2.16,.16,17.17,1.74,19.75,1.97,6.56,1,13.15,1.98,19.69,3.12,4.37,.92,11.3,2.37,15.66,3.33,6.09,1.44,13.36,3.54,19.38,5.17,15.26,4.76,30.64,10.36,45.09,17.17,30.59,14.04,58.83,33.65,85.57,53.39,33.15,24.73,63.39,44.89,103.62,53.99,23.33,5.41,47.42,7.14,71.37,5.75,34.62-2.15,67.85-10.17,100.83-21.63,36.5-12.61,71.57-29.49,106.52-46.86-20.08,22.15-42.69,42.2-67.02,59.75-75.5,54.99-171.79,82.87-263.15,52.98-23.4-7.51-45.79-19.34-66.08-32.55-24.54-15.97-47.01-33.86-71.44-49.1-22.47-14.22-46.36-25.85-71.53-34.3,0,0-6.29-2.13-6.29-2.13,0,0-1.57-.53-1.57-.53-1.33-.38-3.52-1-4.8-1.36-3.55-.99-9.23-2.81-12.83-3.59-4.33-1.02-8.67-2.04-13.01-3.12l-13.21-2.51c-3.94-.85-9.37-1.51-13.35-2.09-3.57-.53-9.83-1.45-13.48-1.69-52.64-5.81-105.99-1-159.19,7.46-9.85,1.87-20.46,3.76-30.35,5.52-6.53,1.37-14.82,3.17-21.47,4.5-14.57,2.8-28.68,6.59-43.38,9.38h0Z"/>
</svg>